<svg width="177" height="170" viewBox="0 0 177 170" fill="none" xmlns="http://www.w3.org/2000/svg">
<path d="M155 118L172.5 106.5L158.5 103.5L143 114L155 118Z" fill="#164F2F"/>
<path d="M155 77C153.4 75 158.333 72.8333 161 72L147 61.5L139.5 71L158.5 103L172 105.5C167 96.8333 156.6 79 155 77Z" fill="#2F8862"/>
<path d="M176 8C175.6 4 169.5 1.33333 166.5 0.5V67C166.5 69.4 162.5 71 160.5 71.5C161 72 163.1 73.9 167.5 77.5C171.9 81.1 175 77 176 74.5C176.167 54 176.4 12 176 8Z" fill="#2274A6"/>
<path d="M108.5 49.5C107.3 44.3 96.6667 37.6667 91.5 35C92.8333 36.8333 95.9 41.1 97.5 43.5C99.5 46.5 100 56 100 64C100 70.4 87.3333 82.6667 81 88L93.5 94L111 67.5C111.167 66.5 111.4 64 111 62C110.5 59.5 110 56 108.5 49.5Z" fill="#246DA4"/>
<path d="M0 160V25.5H71C80.6667 27.1667 100 35.5 100 55.5C103.2 69.9 88.3333 82.8333 80.5 87.5L93 94.5L128 44C126.833 43.5 124.283 41.7828 124 41.5C123.5 41 118 37.25 114.5 35.5C111.3 33.9 112 32.5 113.5 30.5C122.167 25.1667 141.9 12.6 151.5 7C161.1 1.4 165 0.5 166.5 0V66C166.5 71.6 161.167 71.3333 158.5 70.5L147 61.5L139.5 70.5L158.5 104L143 113.5L125 83.5C112.5 102.5 87.1 141 85.5 143C83.9 145 75.1667 154.333 71 158.5C70 159 67 159.5 63.5 160.5C60.0599 161.483 19.8333 160.667 0 160Z" fill="#FEFEFE"/>
<path d="M41 55V86C46.6667 85.6667 58.7 84.9 61.5 84.5C65 84 72.5 76 73.5 75C74.5 74 77.5 68 78 62C78.4 57.2 67.8333 55.3333 62.5 55H41Z" fill="#5FAAD7"/>
<path d="M42 139.221H33V105.721C35.3333 105.554 43 105.321 55 105.721C67 106.121 69.8333 112.333 69.5 115C60.7927 114.839 42.8242 114.585 42.0217 114.507C42.4852 114.909 42 131.176 42 139.221Z" fill="#278759"/>
<path d="M41 86.2036H33V45.414H44C49.8333 45.0698 62.8 44.8976 68 46.9629C73.2 49.0282 76.1667 56.5742 77 59.5C75.6667 58.9837 72.5 57.3261 70.5 56.5C68.5 55.6739 50 55.9126 41 55.7405V86.2036Z" fill="#246DA2"/>
<path d="M8 167.5C5.6 167.5 1 163 0 160C20.8333 160.167 62.7 160.4 63.5 160C64.3 159.6 68.8333 158.5 71 158L85.5 143L125 83.5L138.5 106L114 142.5C109.5 149.5 98.9 164.3 92.5 167.5C84.5 171.5 11 167.5 8 167.5Z" fill="#2C895D"/>
<path d="M55 138.5C50.2 140.1 44.3333 139.833 42 139.5V114.5H69.5C70 116.5 71 121.3 71 124.5C71 127.7 68.6667 131.833 67.5 133.5C65.3333 134.5 59.8 136.9 55 138.5Z" fill="#5FAAD7"/>
</svg>
