<svg width="178" height="171" viewBox="0 0 178 171" fill="none" xmlns="http://www.w3.org/2000/svg">
<path d="M156 119L173.5 107.5L159.5 104.5L144 115L156 119Z" fill="#164F2F"/>
<path d="M156 78C154.4 76 159.333 73.8333 162 73L148 62.5L140.5 72L159.5 104L173 106.5C168 97.8333 157.6 80 156 78Z" fill="#2F8862"/>
<path d="M177 9C176.6 5 170.5 2.33333 167.5 1.5V68C167.5 70.4 163.5 72 161.5 72.5C162 73 164.1 74.9 168.5 78.5C172.9 82.1 176 78 177 75.5C177.167 55 177.4 13 177 9Z" fill="#2274A6"/>
<path d="M109.5 50.5C108.3 45.3 97.6667 38.6667 92.5 36C93.8333 37.8333 96.9 42.1 98.5 44.5C100.5 47.5 101 57 101 65C101 71.4 88.3333 83.6667 82 89L94.5 95L112 68.5C112.167 67.5 112.4 65 112 63C111.5 60.5 111 57 109.5 50.5Z" fill="#246DA4"/>
<path d="M1 161V26.5H72C81.6667 28.1667 101 36.5 101 56.5C104.2 70.9 89.3333 83.8333 81.5 88.5L94 95.5L129 45C127.833 44.5 125.283 42.7828 125 42.5C124.5 42 119 38.25 115.5 36.5C112.3 34.9 113 33.5 114.5 31.5C123.167 26.1667 142.9 13.6 152.5 8C162.1 2.4 166 1.5 167.5 1V67C167.5 72.6 162.167 72.3333 159.5 71.5L148 62.5L140.5 71.5L159.5 105L144 114.5L126 84.5C113.5 103.5 88.1 142 86.5 144C84.9 146 76.1667 155.333 72 159.5C71 160 68 160.5 64.5 161.5C61.0599 162.483 20.8333 161.667 1 161Z" fill="#FEFEFE" stroke="black"/>
<path d="M42 56V87C47.6667 86.6667 59.7 85.9 62.5 85.5C66 85 73.5 77 74.5 76C75.5 75 78.5 69 79 63C79.4 58.2 68.8333 56.3333 63.5 56H42Z" fill="#5FAAD7"/>
<path d="M43 140.221H34V106.721C36.3333 106.554 44 106.321 56 106.721C68 107.121 70.8333 113.333 70.5 116C61.7927 115.839 43.8242 115.585 43.0217 115.507C43.4852 115.909 43 132.176 43 140.221Z" fill="#278759"/>
<path d="M42 87.2036H34V46.414H45C50.8333 46.0698 63.8 45.8976 69 47.9629C74.2 50.0282 77.1667 57.5742 78 60.5C76.6667 59.9837 73.5 58.3261 71.5 57.5C69.5 56.6739 51 56.9126 42 56.7405V87.2036Z" fill="#246DA2"/>
<path d="M9 168.5C6.6 168.5 2 164 1 161C21.8333 161.167 63.7 161.4 64.5 161C65.3 160.6 69.8333 159.5 72 159L86.5 144L126 84.5L139.5 107L115 143.5C110.5 150.5 99.9 165.3 93.5 168.5C85.5 172.5 12 168.5 9 168.5Z" fill="#2C895D"/>
<path d="M56 139.5C51.2 141.1 45.3333 140.833 43 140.5V115.5H70.5C71 117.5 72 122.3 72 125.5C72 128.7 69.6667 132.833 68.5 134.5C66.3333 135.5 60.8 137.9 56 139.5Z" fill="#5FAAD7"/>
</svg>
